<?xml version="1.0" standalone="no"?><!DOCTYPE svg PUBLIC "-//W3C//DTD SVG 1.1//EN" "http://www.w3.org/Graphics/SVG/1.1/DTD/svg11.dtd"><svg xmlns="http://www.w3.org/2000/svg" version="1.1" width="866.667" height="446.333" xmlns:xlink="http://www.w3.org/1999/xlink" xlink="http://www.w3.org/1999/xlink" style="position:relative;overflow:hidden;" viewBox="58.333 55.833 866.667 446.333"><defs/><g><g width="150" height="75" transform="scale(1,1) translate(90,212.5)"><g transform="scale(1,1) translate(0,0)" stroke="#CFE9F7" fill="#FFC000" fill-opacity="1" stroke-opacity="1"><path d="M0,15 a15,15 0 0,1 15,-15 l120,0 a15,15 0 0,1 15,15 l0,45 a15,15 0 0,1 -15,15 l-120,0 a15,15 0 0,1 -15,-15 z" stroke-width="1" stroke-dasharray="none"/></g><g width="136.3303607472" height="61.330360747200004" transform="scale(1,1) translate(6.835,6.835)"><text width="136.3303607472" height="19.16666603088379" transform="scale(1,1) translate(0,21.081847358158107)" xml:space="preserve"><tspan xml:space="preserve" text-rendering="optimizeSpeed" font-size="15.277777777777779" font-weight="bold" font-style="normal" text-decoration="none" fill="#333333" opacity="1" x="17.801" text-anchor="start" y="15" textLength="100.72916412353516" style="font-family: Montserrat, Helvetica Neue, Helvetica, sans-serif;">Sensing unit</tspan></text></g></g><g width="251.667" height="96.667" transform="scale(1,1) translate(332.5,68.333)"><g transform="scale(1,1) translate(0,0)" stroke="#CFE9F7" fill="#0070C0" fill-opacity="0.8509803921568627" stroke-opacity="1"><path d="M48,0 L37.2,1.231 L32.826,2.462 L29.538,3.692 L26.825,4.923 L24.486,6.154 L22.419,7.385 L20.562,8.615 L18.875,9.846 L17.329,11.077 L15.905,12.308 L14.587,13.538 L13.363,14.769 L12.223,16 L11.159,17.231 L10.165,18.462 L9.236,19.692 L8.366,20.923 L7.553,22.154 L6.792,23.385 L6.082,24.615 L5.418,25.846 L4.8,27.077 L4.225,28.308 L3.692,29.538 L3.199,30.769 L2.745,32 L2.329,33.231 L1.949,34.462 L1.605,35.692 L1.296,36.923 L1.021,38.154 L0.78,39.385 L0.571,40.615 L0.396,41.846 L0.253,43.077 L0.142,44.308 L0.063,45.538 L0.016,46.769 L0,48 L0,48.667 L0.016,49.897 L0.063,51.128 L0.142,52.359 L0.253,53.59 L0.396,54.821 L0.571,56.051 L0.78,57.282 L1.021,58.513 L1.296,59.744 L1.605,60.974 L1.949,62.205 L2.329,63.436 L2.745,64.667 L3.199,65.897 L3.692,67.128 L4.225,68.359 L4.8,69.59 L5.418,70.821 L6.082,72.051 L6.792,73.282 L7.553,74.513 L8.366,75.744 L9.236,76.974 L10.165,78.205 L11.159,79.436 L12.223,80.667 L13.363,81.897 L14.587,83.128 L15.905,84.359 L17.329,85.59 L18.875,86.821 L20.562,88.051 L22.419,89.282 L24.486,90.513 L26.825,91.744 L29.538,92.974 L32.826,94.205 L37.2,95.436 L48,96.667 L203.667,96.667 L214.467,95.436 L218.841,94.205 L222.128,92.974 L224.842,91.744 L227.18,90.513 L229.248,89.282 L231.105,88.051 L232.792,86.821 L234.337,85.59 L235.761,84.359 L237.079,83.128 L238.304,81.897 L239.444,80.667 L240.508,79.436 L241.502,78.205 L242.431,76.974 L243.3,75.744 L244.114,74.513 L244.874,73.282 L245.585,72.051 L246.248,70.821 L246.866,69.59 L247.441,68.359 L247.974,67.128 L248.467,65.897 L248.922,64.667 L249.338,63.436 L249.718,62.205 L250.062,60.974 L250.371,59.744 L250.646,58.513 L250.887,57.282 L251.095,56.051 L251.271,54.821 L251.414,53.59 L251.524,52.359 L251.604,51.128 L251.651,49.897 L251.667,48.667 L251.667,48 L251.651,46.769 L251.604,45.538 L251.524,44.308 L251.414,43.077 L251.271,41.846 L251.095,40.615 L250.887,39.385 L250.646,38.154 L250.371,36.923 L250.062,35.692 L249.718,34.462 L249.338,33.231 L248.922,32 L248.467,30.769 L247.974,29.538 L247.441,28.308 L246.866,27.077 L246.248,25.846 L245.585,24.615 L244.874,23.385 L244.114,22.154 L243.3,20.923 L242.431,19.692 L241.502,18.462 L240.508,17.231 L239.444,16 L238.304,14.769 L237.079,13.538 L235.761,12.308 L234.337,11.077 L232.792,9.846 L231.105,8.615 L229.248,7.385 L227.18,6.154 L224.842,4.923 L222.128,3.692 L218.841,2.462 L214.467,1.231 L203.667,0 L48,0 z" stroke-width="1" stroke-dasharray="none"/></g><g width="173.2481000213333" height="63.64654881133333" transform="scale(1,1) translate(39.209,16.51)"><text width="173.2481000213333" height="60" transform="scale(1,1) translate(0,1.823274405666666)" xml:space="preserve"><tspan xml:space="preserve" text-rendering="optimizeSpeed" font-size="16.666666666666668" font-weight="bold" font-style="normal" text-decoration="none" fill="#F7F7F7" opacity="1" x="0" text-anchor="start" y="15.833" textLength="172.87759399414062" style="font-family: Montserrat, Helvetica Neue, Helvetica, sans-serif;">Automatic Sanitizer</tspan><tspan xml:space="preserve" text-rendering="optimizeSpeed" font-size="16.666666666666668" font-weight="bold" font-style="normal" text-decoration="none" fill="#F7F7F7" opacity="1" x="36.246" text-anchor="start" y="35.833" textLength="96.04165649414062" style="font-family: Montserrat, Helvetica Neue, Helvetica, sans-serif;">dispensing</tspan><tspan xml:space="preserve" text-rendering="optimizeSpeed" font-size="16.666666666666668" font-weight="bold" font-style="normal" text-decoration="none" fill="#F7F7F7" opacity="1" x="48.486" text-anchor="start" y="55.833" textLength="76.27603149414062" style="font-family: Montserrat, Helvetica Neue, Helvetica, sans-serif;">machine</tspan></text></g></g><g width="293.333" height="47.5" transform="scale(1,1) translate(165,165)"><g transform="scale(1,1) translate(0,0)" fill="#545454" stroke="#545454" stroke-opacity="1"><path d="M 0 37.5 L 0 25 L 293.333 25 L 293.333 0" fill="none" stroke-width="1" stroke-dasharray="none"/><g><g stroke-dasharray="none"><path d="M5,37.5L0,47.5L-5,37.5z" stroke="none" fill-opacity="1"/></g></g></g></g><g width="150" height="75" transform="scale(1,1) translate(298.333,212.5)"><g transform="scale(1,1) translate(0,0)" stroke="#CFE9F7" fill="#FFC000" fill-opacity="1" stroke-opacity="1"><path d="M0,15 a15,15 0 0,1 15,-15 l120,0 a15,15 0 0,1 15,15 l0,45 a15,15 0 0,1 -15,15 l-120,0 a15,15 0 0,1 -15,-15 z" stroke-width="1" stroke-dasharray="none"/></g><g width="136.3303607472" height="61.330360747200004" transform="scale(1,1) translate(6.835,6.835)"><text width="136.3303607472" height="19.16666603088379" transform="scale(1,1) translate(0,21.081847358158107)" xml:space="preserve"><tspan xml:space="preserve" text-rendering="optimizeSpeed" font-size="15.277777777777779" font-weight="bold" font-style="normal" text-decoration="none" fill="#333333" opacity="1" x="20.489" text-anchor="start" y="15" textLength="95.3515625" style="font-family: Montserrat, Helvetica Neue, Helvetica, sans-serif;">Storing unit</tspan></text></g></g><g width="150" height="79.167" transform="scale(1,1) translate(516.667,210.417)"><g transform="scale(1,1) translate(0,0)" stroke="#CFE9F7" fill="#FFC000" fill-opacity="1" stroke-opacity="1"><path d="M0,15.833 a15.833,15.833 0 0,1 15.833,-15.833 l118.333,0 a15.833,15.833 0 0,1 15.833,15.833 l0,47.5 a15.833,15.833 0 0,1 -15.833,15.833 l-118.333,0 a15.833,15.833 0 0,1 -15.833,-15.833 z" stroke-width="1" stroke-dasharray="none"/></g><g width="135.84220540248833" height="65.00887191020924" transform="scale(1,1) translate(7.079,7.079)"><text width="135.84220540248833" height="38.33333206176758" transform="scale(1,1) translate(0,13.33776992422083)" xml:space="preserve"><tspan xml:space="preserve" text-rendering="optimizeSpeed" font-size="15.277777777777779" font-weight="bold" font-style="normal" text-decoration="none" fill="#333333" opacity="1" x="22.882" text-anchor="start" y="15" textLength="90.078125" style="font-family: Montserrat, Helvetica Neue, Helvetica, sans-serif;">Dispensing</tspan><tspan xml:space="preserve" text-rendering="optimizeSpeed" font-size="15.277777777777779" font-weight="bold" font-style="normal" text-decoration="none" fill="#333333" opacity="1" x="50.922" text-anchor="start" y="34.167" textLength="33.99739456176758" style="font-family: Montserrat, Helvetica Neue, Helvetica, sans-serif;">Unit</tspan></text></g></g><g width="85" height="47.5" transform="scale(1,1) translate(373.333,165)"><g transform="scale(1,1) translate(0,0)" fill="#545454" stroke="#545454" stroke-opacity="1"><path d="M 0 37.5 L 0 25 L 85 25 L 85 0" fill="none" stroke-width="1" stroke-dasharray="none"/><g><g stroke-dasharray="none"><path d="M5,37.5L0,47.5L-5,37.5z" stroke="none" fill-opacity="1"/></g></g></g></g><g width="133.333" height="45.417" transform="scale(1,1) translate(458.333,165)"><g transform="scale(1,1) translate(0,0)" fill="#545454" stroke="#545454" stroke-opacity="1"><path d="M 0 0 L 0 25 L 133.333 25 L 133.333 35.417" fill="none" stroke-width="1" stroke-dasharray="none"/><g><g stroke-dasharray="none"><path d="M138.333,35.417L133.333,45.417L128.333,35.417z" stroke="none" fill-opacity="1"/></g></g></g></g><g width="150" height="75" transform="scale(1,1) translate(740,212.5)"><g transform="scale(1,1) translate(0,0)" stroke="#CFE9F7" fill="#FFC000" fill-opacity="1" stroke-opacity="1"><path d="M0,15 a15,15 0 0,1 15,-15 l120,0 a15,15 0 0,1 15,15 l0,45 a15,15 0 0,1 -15,15 l-120,0 a15,15 0 0,1 -15,-15 z" stroke-width="1" stroke-dasharray="none"/></g><g width="136.3303607472" height="61.330360747200004" transform="scale(1,1) translate(6.835,6.835)"><text width="136.3303607472" height="19.16666603088379" transform="scale(1,1) translate(0,21.081847358158107)" xml:space="preserve"><tspan xml:space="preserve" text-rendering="optimizeSpeed" font-size="15.277777777777779" font-weight="bold" font-style="normal" text-decoration="none" fill="#333333" opacity="1" x="20.483" text-anchor="start" y="15" textLength="95.36457824707031" style="font-family: Montserrat, Helvetica Neue, Helvetica, sans-serif;">On/ Off unit</tspan></text></g></g><g width="356.667" height="47.5" transform="scale(1,1) translate(458.333,165)"><g transform="scale(1,1) translate(0,0)" fill="#545454" stroke="#545454" stroke-opacity="1"><path d="M 0 0 L 0 25 L 356.667 25 L 356.667 37.5" fill="none" stroke-width="1" stroke-dasharray="none"/><g><g stroke-dasharray="none"><path d="M361.667,37.5L356.667,47.5L351.667,37.5z" stroke="none" fill-opacity="1"/></g></g></g></g><g width="191.667" height="195.833" transform="scale(1,1) translate(70.833,293.75)"><g stroke="#CFE9F7" stroke-opacity="1" stroke-width="1" stroke-dasharray="none" width="191.667" height="195.833" transform="scale(1,1) translate(0,0)" fill="#FADA7A" fill-opacity="1"><rect width="191.667" height="195.833"/></g><g width="186.6666670838991" height="190.8333340436222" transform="scale(1,1) translate(2.5,2.5)"><text width="186.6666670838991" height="16.66666603088379" transform="scale(1,1) translate(0,87.0833340063692)" xml:space="preserve"><tspan xml:space="preserve" text-rendering="optimizeSpeed" font-size="13.88888888888889" font-weight="bold" font-style="normal" text-decoration="none" fill="#333333" opacity="1" x="46.491" text-anchor="start" y="13.333" textLength="93.68489074707031" style="font-family: Montserrat, Helvetica Neue, Helvetica, sans-serif;">Sense Hands</tspan></text></g></g><g width="191.667" height="196" transform="scale(1,1) translate(279.167,293.667)"><g stroke="#CFE9F7" stroke-opacity="1" stroke-width="1" stroke-dasharray="none" width="191.667" height="196" transform="scale(1,1) translate(0,0)" fill="#FADA7A" fill-opacity="1"><rect width="191.667" height="196"/></g><g width="186.66666666666666" height="191" transform="scale(1,1) translate(2.5,2.5)"><text width="186.66666666666666" height="49.99999809265137" transform="scale(1,1) translate(0,70.50000095367432)" xml:space="preserve"><tspan xml:space="preserve" text-rendering="optimizeSpeed" font-size="13.88888888888889" font-weight="bold" font-style="normal" text-decoration="none" fill="#333333" opacity="1" x="36.758" text-anchor="start" y="13.333" textLength="113.15103912353516" style="font-family: Montserrat, Helvetica Neue, Helvetica, sans-serif;">Stores Sanitizer</tspan><tspan xml:space="preserve" text-rendering="optimizeSpeed" font-size="13.88888888888889" font-weight="bold" font-style="normal" text-decoration="none" fill="#333333" opacity="1" x="41.126" text-anchor="start" y="46.667" textLength="104.4140625" style="font-family: Montserrat, Helvetica Neue, Helvetica, sans-serif;">Refill Sanitizer</tspan></text></g></g><g width="191.667" height="196" transform="scale(1,1) translate(495.833,293.667)"><g stroke="#CFE9F7" stroke-opacity="1" stroke-width="1" stroke-dasharray="none" width="191.667" height="196" transform="scale(1,1) translate(0,0)" fill="#FADA7A" fill-opacity="1"><rect width="191.667" height="196"/></g><g width="186.66666666666666" height="191" transform="scale(1,1) translate(2.5,2.5)"><text width="186.66666666666666" height="49.99999809265137" transform="scale(1,1) translate(0,70.50000095367432)" xml:space="preserve"><tspan xml:space="preserve" text-rendering="optimizeSpeed" font-size="13.88888888888889" font-weight="bold" font-style="normal" text-decoration="none" fill="#333333" opacity="1" x="26.094" text-anchor="start" y="13.333" textLength="134.47915649414062" style="font-family: Montserrat, Helvetica Neue, Helvetica, sans-serif;">Dispense Sanitizer</tspan><tspan xml:space="preserve" text-rendering="optimizeSpeed" font-size="13.88888888888889" font-weight="bold" font-style="normal" text-decoration="none" fill="#333333" opacity="1" x="34.023" text-anchor="start" y="46.667" textLength="118.61978912353516" style="font-family: Montserrat, Helvetica Neue, Helvetica, sans-serif;">Pumps Sanitizer</tspan></text></g></g><g width="191.667" height="196" transform="scale(1,1) translate(720.833,293.667)"><g stroke="#CFE9F7" stroke-opacity="1" stroke-width="1" stroke-dasharray="none" width="191.667" height="196" transform="scale(1,1) translate(0,0)" fill="#FADA7A" fill-opacity="1"><rect width="191.667" height="196"/></g><g width="186.66666666666666" height="191" transform="scale(1,1) translate(2.5,2.5)"><text width="186.66666666666666" height="33.33333206176758" transform="scale(1,1) translate(0,78.83333396911621)" xml:space="preserve"><tspan xml:space="preserve" text-rendering="optimizeSpeed" font-size="13.88888888888889" font-weight="bold" font-style="normal" text-decoration="none" fill="#333333" opacity="1" x="22.435" text-anchor="start" y="13.333" textLength="141.796875" style="font-family: Montserrat, Helvetica Neue, Helvetica, sans-serif;">Indicating machine</tspan><tspan xml:space="preserve" text-rendering="optimizeSpeed" font-size="13.88888888888889" font-weight="bold" font-style="normal" text-decoration="none" fill="#333333" opacity="1" x="54.928" text-anchor="start" y="30" textLength="76.80989074707031" style="font-family: Montserrat, Helvetica Neue, Helvetica, sans-serif;">On and off</tspan></text></g></g></g></svg>